<svg width="24" height="24" viewBox="0 0 24 24" fill="none" xmlns="http://www.w3.org/2000/svg">
    <path d="M4.397 10.497C4.74504 8.73648 5.69326 7.1513 7.07984 6.01202C8.46642 4.87274 10.2054 4.24997 12 4.25C13.795 4.24997 15.5344 4.87304 16.9211 6.01283C18.3079 7.15262 19.256 8.73843 19.6035 10.4995M19.603 13.503C19.255 15.2635 18.3067 16.8487 16.9202 17.988C15.5336 19.1273 13.7946 19.75 12 19.75C10.2054 19.75 8.46642 19.1273 7.07984 17.988C5.69326 16.8487 4.74504 15.2635 4.397 13.503M2.5 13.5H21.5C21.6381 13.5 21.75 13.3881 21.75 13.25V10.75C21.75 10.6119 21.6381 10.5 21.5 10.5H2.5C2.36193 10.5 2.25 10.6119 2.25 10.75V13.25C2.25 13.3881 2.36193 13.5 2.5 13.5Z" stroke="#E5E5E5" stroke-linecap="round" stroke-linejoin="round"/>
    <path d="M7.49402 10.4965C7.80951 9.55102 8.41443 8.72875 9.22312 8.1461C10.0318 7.56345 11.0033 7.24995 12 7.25C12.9972 7.25006 13.9691 7.56394 14.7779 8.14717C15.5867 8.73039 16.1915 9.55338 16.5065 10.4995M16.506 13.5035C16.1906 14.4491 15.5857 15.2715 14.777 15.8542C13.9683 16.4369 12.9968 16.7505 12 16.7505C11.0033 16.7504 10.0319 16.4368 9.2233 15.8541C8.4147 15.2713 7.8099 14.449 7.49452 13.5035" stroke="#E5E5E5" stroke-linecap="round" stroke-linejoin="round"/>
</svg>
