<svg width="24" height="24" viewBox="0 0 24 24" fill="none" xmlns="http://www.w3.org/2000/svg">
    <path d="M18.0518 4.45898C18.3824 4.59588 18.6864 4.79774 18.9443 5.05566C19.4599 5.57137 19.75 6.27077 19.75 7V18C19.75 18.7292 19.4599 19.4286 18.9443 19.9443C18.6219 20.2668 18.2273 20.5007 17.7988 20.6309C18.227 20.5006 18.621 20.2666 18.9434 19.9443C19.2656 19.6221 19.4996 19.2278 19.6299 18.7998C19.682 18.6283 19.7175 18.4515 19.7354 18.2715C19.7443 18.1817 19.749 18.0911 19.749 18V7.00098C19.749 6.81848 19.7306 6.63736 19.6953 6.46094C19.6777 6.37284 19.6559 6.28586 19.6299 6.2002C19.5256 5.85744 19.3551 5.53649 19.126 5.25684C19.0688 5.18713 19.0077 5.11995 18.9434 5.05566C18.6856 4.79801 18.382 4.59597 18.0518 4.45898ZM15 2.39941C15.1587 2.39954 15.3115 2.46309 15.4238 2.5752C15.5362 2.68769 15.5996 2.84099 15.5996 3V4.40039H17C17.6894 4.40052 18.3504 4.67463 18.8379 5.16211C19.3253 5.64968 19.5996 6.31153 19.5996 7.00098V18C19.5996 18.6896 19.3255 19.3513 18.8379 19.8389C18.3504 20.3262 17.6893 20.6005 17 20.6006H6.99902C6.30987 20.6005 5.64857 20.326 5.16113 19.8389C4.67369 19.3513 4.39941 18.6894 4.39941 18V7.00098C4.39941 6.31164 4.67384 5.64966 5.16113 5.16211C5.64859 4.67478 6.30975 4.40052 6.99902 4.40039H8.39941V3C8.39941 2.84087 8.46267 2.68772 8.5752 2.5752C8.68769 2.46283 8.84099 2.39941 9 2.39941C9.15872 2.39954 9.31147 2.46309 9.42383 2.5752C9.5362 2.68769 9.59961 2.84099 9.59961 3V4.40039H14.3994V3C14.3994 2.84087 14.4627 2.68772 14.5752 2.5752C14.6877 2.46283 14.841 2.39941 15 2.39941ZM4.71191 19.5254C4.81157 19.6747 4.92684 19.8155 5.05566 19.9443C5.35636 20.2449 5.72024 20.4662 6.11523 20.6006C5.72001 20.4662 5.35545 20.2451 5.05469 19.9443C4.99034 19.88 4.92926 19.813 4.87207 19.7432L4.71191 19.5254ZM5.60059 11.1006V18C5.60059 18.7727 6.22641 19.4001 6.99902 19.4004H17C17.7726 19.4001 18.4004 18.7727 18.4004 18V11.1006H5.60059ZM6.85254 19.2402C6.90079 19.2459 6.95023 19.25 7 19.25H6.99902C6.94944 19.25 6.90062 19.2459 6.85254 19.2402ZM6.30078 19.0361C6.36718 19.081 6.43805 19.1197 6.5127 19.1514C6.47528 19.1355 6.43877 19.1179 6.40332 19.0986L6.30078 19.0361ZM6.99902 5.60059C6.2264 5.60085 5.60059 6.2283 5.60059 7.00098V9.89941H18.4004V7.00098C18.4004 6.2283 17.7726 5.60085 17 5.60059H15.5996V7.00098C15.5994 7.15964 15.536 7.31156 15.4238 7.42383C15.3114 7.53623 15.159 7.59948 15 7.59961C14.8409 7.59961 14.6877 7.53635 14.5752 7.42383C14.4631 7.31156 14.3997 7.15964 14.3994 7.00098V5.60059H9.59961V7.00098C9.59935 7.15964 9.53597 7.31156 9.42383 7.42383C9.31142 7.53623 9.15895 7.59948 9 7.59961C8.84087 7.59961 8.68772 7.53635 8.5752 7.42383C8.46306 7.31156 8.39967 7.15964 8.39941 7.00098V5.60059H6.99902ZM8.49023 7.54785C8.55622 7.6092 8.63086 7.65932 8.71289 7.69336C8.63084 7.65944 8.55628 7.60925 8.49023 7.54785ZM14.4902 7.54785C14.5562 7.6092 14.6309 7.65932 14.7129 7.69336C14.6308 7.65944 14.5563 7.60925 14.4902 7.54785ZM8.25 5.75V7.00098C8.25017 7.13236 8.28745 7.25885 8.35156 7.37109C8.28713 7.25859 8.24902 7.13191 8.24902 7V5.75H8.25ZM14.25 5.75V7.00098C14.2502 7.13236 14.2874 7.25885 14.3516 7.37109C14.2871 7.25859 14.249 7.13191 14.249 7V5.75H14.25ZM7 5.75C6.82745 5.75 6.66226 5.78434 6.5127 5.84766C6.66215 5.78428 6.82661 5.75007 6.99902 5.75H7ZM17 5.75C17.1292 5.75005 17.2539 5.76911 17.3711 5.80566C17.2537 5.76915 17.1283 5.75 16.999 5.75H17ZM5.05469 5.05566H5.05566H5.05469ZM8.26367 2.85254C8.25402 2.90068 8.25 2.95017 8.25 3V4.25H8.24902V3C8.24902 2.95014 8.25402 2.90071 8.26367 2.85254ZM14.2637 2.85254C14.254 2.90068 14.25 2.95017 14.25 3V4.25H14.249V3C14.249 2.95014 14.254 2.90071 14.2637 2.85254ZM9 2.25C8.8012 2.25 8.61036 2.32923 8.46973 2.46973L8.37598 2.58398C8.40308 2.54336 8.43373 2.50478 8.46875 2.46973C8.6094 2.32907 8.80109 2.25 9 2.25ZM14.999 2.25C14.8006 2.25026 14.6101 2.32946 14.4697 2.46973L14.376 2.58398C14.4031 2.54336 14.4337 2.50478 14.4688 2.46973C14.6093 2.32919 14.8003 2.25013 14.999 2.25ZM9.28711 2.30762C9.33203 2.32628 9.37537 2.34885 9.41602 2.37598C9.37535 2.34889 9.33205 2.32625 9.28711 2.30762ZM15.2871 2.30762C15.332 2.32628 15.3754 2.34885 15.416 2.37598C15.3754 2.34889 15.3321 2.32625 15.2871 2.30762Z" fill="black"/>
</svg>
