<svg width="21" height="21" viewBox="0 0 21 21" fill="none" xmlns="http://www.w3.org/2000/svg">
    <path d="M17.4028 6.36567C17.2913 6.25653 17.1415 6.19535 16.9855 6.19521C16.8295 6.19507 16.6796 6.25598 16.5678 6.36492L10.3136 12.4506L4.0716 6.35372C3.96009 6.24458 3.81029 6.1834 3.65426 6.18326C3.49822 6.18312 3.34832 6.24404 3.2366 6.35297C3.18213 6.40592 3.13881 6.46924 3.10921 6.5392C3.07961 6.60917 3.06432 6.68435 3.06425 6.76032C3.06418 6.83628 3.07934 6.9115 3.10881 6.98151C3.13829 7.05153 3.18149 7.11493 3.23587 7.16797L9.87632 13.6514C9.99293 13.7653 10.1494 13.8291 10.3124 13.8293C10.4754 13.8294 10.632 13.7659 10.7488 13.6522L17.4009 7.18067C17.4553 7.12772 17.4987 7.0644 17.5283 6.99444C17.5579 6.92447 17.5732 6.84929 17.5732 6.77332C17.5733 6.69736 17.5581 6.62214 17.5287 6.55213C17.4992 6.48211 17.456 6.41871 17.4016 6.36567L17.4028 6.36567Z" fill="black"/>
</svg>
