<svg width="24" height="24" viewBox="0 0 24 24" fill="none" xmlns="http://www.w3.org/2000/svg">
    <path d="M15.4355 14.4863C15.3553 14.5435 15.264 14.5843 15.168 14.6064C14.9932 14.6466 14.8121 14.6195 14.6543 14.5371L14.7354 14.5762C14.8269 14.6107 14.9246 14.6269 15.0225 14.624L15.1689 14.6055C15.2167 14.5944 15.2631 14.5786 15.3076 14.5586L15.4355 14.4863ZM12 6.39941C12.1591 6.39941 12.3123 6.46267 12.4248 6.5752C12.5373 6.68772 12.6006 6.84087 12.6006 7V11.667L15.3184 13.3662C15.385 13.408 15.4436 13.4633 15.4893 13.5273C15.5346 13.5911 15.5673 13.663 15.585 13.7393C15.6026 13.8158 15.6047 13.8961 15.5918 13.9736C15.5788 14.0512 15.5504 14.1267 15.5088 14.1934C15.4671 14.2598 15.4124 14.3177 15.3486 14.3633C15.2845 14.409 15.2115 14.4423 15.1348 14.46C14.9799 14.4956 14.8174 14.4679 14.6826 14.3838L11.6826 12.5088C11.5965 12.4549 11.5248 12.3799 11.4756 12.291C11.4263 12.202 11.3994 12.1007 11.3994 11.999V7C11.3994 6.84087 11.4627 6.68772 11.5752 6.5752C11.6877 6.46267 11.8409 6.39941 12 6.39941ZM15.6357 14.2725V14.2734V14.2725ZM15.7148 13.6592C15.7197 13.6752 15.7277 13.6907 15.7314 13.707L15.75 13.8525C15.7486 13.8033 15.7425 13.7541 15.7314 13.7061C15.7277 13.6899 15.7196 13.675 15.7148 13.6592ZM11.25 11.999C11.25 12.0306 11.2519 12.0626 11.2559 12.0938L11.2734 12.1875C11.2577 12.1265 11.25 12.0635 11.25 12V11.999Z" fill="black"/>
    <path d="M12 3.27539C14.314 3.27539 16.5337 4.19382 18.1699 5.83008C19.8062 7.46633 20.7246 9.68599 20.7246 12C20.7246 14.314 19.8062 16.5337 18.1699 18.1699C16.5337 19.8062 14.314 20.7246 12 20.7246C9.68599 20.7246 7.46633 19.8062 5.83008 18.1699C4.19382 16.5337 3.27539 14.314 3.27539 12C3.27539 9.68599 4.19382 7.46633 5.83008 5.83008C7.46633 4.19382 9.68599 3.27539 12 3.27539ZM12 4.72461C11.0446 4.72461 10.0985 4.91272 9.21582 5.27832C8.33318 5.64392 7.53102 6.17992 6.85547 6.85547C6.17992 7.53102 5.64392 8.33318 5.27832 9.21582C4.91272 10.0985 4.72461 11.0446 4.72461 12C4.72461 13.9294 5.49114 15.7802 6.85547 17.1445C8.2198 18.5089 10.0705 19.2754 12 19.2754C13.9294 19.2754 15.7802 18.5089 17.1445 17.1445C18.5089 15.7802 19.2754 13.9294 19.2754 12C19.2754 11.0446 19.0873 10.0985 18.7217 9.21582C18.3561 8.33318 17.8201 7.53102 17.1445 6.85547C16.469 6.17992 15.6668 5.64392 14.7842 5.27832C13.9015 4.91272 12.9554 4.72461 12 4.72461Z" fill="black" stroke="white" stroke-width="0.05"/>
</svg>
