<svg width="16" height="16" viewBox="0 0 16 16" fill="none" xmlns="http://www.w3.org/2000/svg">
    <path d="M12.9902 12.5508C12.9699 12.6557 12.919 12.7557 12.8379 12.8369C12.7022 12.9726 12.5133 13.0243 12.3379 12.9902C12.513 13.0241 12.7014 12.9724 12.8369 12.8369C12.9183 12.7555 12.9699 12.6551 12.9902 12.5498V12.5508ZM12.1221 3.2334C12.2999 3.0558 12.5888 3.05575 12.7666 3.2334C12.9444 3.41121 12.9443 3.70002 12.7666 3.87793L8.71582 7.92969C8.67716 7.96866 8.67716 8.03134 8.71582 8.07031L12.7666 12.1221C12.9443 12.3 12.9444 12.5888 12.7666 12.7666C12.5888 12.9442 12.2999 12.9442 12.1221 12.7666L8.07031 8.71582C8.04096 8.6867 7.99796 8.67862 7.96191 8.69336L7.92969 8.71582L3.87793 12.7666C3.70001 12.9441 3.41115 12.9444 3.2334 12.7666C3.05581 12.5888 3.05597 12.2999 3.2334 12.1221L7.28418 8.07031C7.30285 8.05157 7.31348 8.02646 7.31348 8C7.31348 7.97354 7.30285 7.94843 7.28418 7.92969L3.2334 3.87793C3.05597 3.70006 3.05581 3.41117 3.2334 3.2334C3.41115 3.05564 3.70001 3.05591 3.87793 3.2334L7.92969 7.28418C7.94835 7.30277 7.97366 7.31339 8 7.31348C8.02638 7.31348 8.05159 7.30275 8.07031 7.28418L12.1221 3.2334ZM12.4443 3C12.5868 2.99994 12.7294 3.05455 12.8379 3.16309C13.0546 3.38005 13.0547 3.73236 12.8379 3.94922L8.78711 8L12.8379 12.0508C12.892 12.1049 12.9328 12.1675 12.96 12.2344H12.959C12.9319 12.1677 12.891 12.1048 12.8369 12.0508L8.78613 8L12.8369 3.94922C12.864 3.92218 12.8879 3.89302 12.9082 3.8623C12.9286 3.83149 12.9454 3.79909 12.959 3.76562C13.0405 3.5648 12.9997 3.32588 12.8369 3.16309C12.7285 3.05477 12.5865 3.00004 12.4443 3ZM3.55664 3C3.42874 2.99996 3.30258 3.04619 3.19922 3.13379C3.30262 3.04614 3.42862 2.99994 3.55664 3ZM3.66309 3.01074C3.69798 3.01753 3.73231 3.02752 3.76562 3.04102C3.73233 3.02753 3.69796 3.01752 3.66309 3.01074Z" fill="black"/>
</svg>
