<svg width="48" height="48" viewBox="0 0 48 48" fill="none" xmlns="http://www.w3.org/2000/svg">
    <rect x="0.5" y="0.5" width="47" height="47" stroke="black"/>
    <path fill-rule="evenodd" clip-rule="evenodd" d="M14.9641 33.9883C15.0614 34.0013 15.1598 34.002 15.2571 33.9893C15.1597 34.002 15.0614 34.0012 14.9641 33.9883ZM32.1018 14.3252C32.5356 13.8916 33.2402 13.8916 33.6741 14.3252C34.1079 14.7591 34.1079 15.4646 33.6741 15.8984L25.5725 24L33.6741 32.1016C34.1079 32.5354 34.1079 33.2409 33.6741 33.6748C33.2402 34.1084 32.5356 34.1084 32.1018 33.6748L23.9993 25.5732L15.8977 33.6748C15.805 33.7674 15.6992 33.8386 15.5871 33.8916C15.6338 33.8695 15.68 33.8454 15.7239 33.8164L15.8977 33.6738L23.9993 25.5723L32.1008 33.6738C32.5346 34.1077 33.2392 34.1076 33.6731 33.6738C34.107 33.24 34.107 32.5354 33.6731 32.1016L25.5715 24L33.6731 15.8984C34.107 15.4646 34.107 14.7601 33.6731 14.3262C33.2392 13.8923 32.5347 13.8923 32.1008 14.3262L23.9993 22.4277L15.8977 14.3262C15.8707 14.2992 15.8426 14.2736 15.8137 14.25C15.7555 14.2025 15.6937 14.1618 15.6291 14.1279C15.5968 14.111 15.564 14.0956 15.5305 14.082C15.2628 13.9735 14.9613 13.9736 14.6936 14.082C14.6601 14.0956 14.6273 14.111 14.595 14.1279C14.4981 14.1788 14.4068 14.2448 14.3254 14.3262L14.1828 14.5C14.2235 14.4383 14.2711 14.3795 14.3254 14.3252C14.7592 13.8916 15.4639 13.8916 15.8977 14.3252L23.9993 22.4268L32.1018 14.3252ZM14.6506 33.8994C14.743 33.9415 14.84 33.9699 14.9387 33.9854C14.8399 33.9699 14.7431 33.9415 14.6506 33.8994ZM14.3254 33.6738L14.4993 33.8164C14.5429 33.8452 14.5886 33.8696 14.635 33.8916C14.5232 33.8386 14.4179 33.7672 14.3254 33.6748C14.313 33.6624 14.3019 33.6486 14.2903 33.6357C14.3019 33.6485 14.3131 33.6616 14.3254 33.6738ZM32.2434 14.4668C32.5992 14.1115 33.1768 14.1112 33.5325 14.4668C33.8881 14.8224 33.8878 15.4001 33.5325 15.7559L25.4309 23.8594C25.3533 23.9374 25.3532 24.0626 25.4309 24.1406L33.5325 32.2441C33.8878 32.6 33.8881 33.1776 33.5325 33.5332C33.1768 33.8887 32.5992 33.8885 32.2434 33.5332L24.1399 25.4316C24.0812 25.3732 23.9953 25.3572 23.9231 25.3867L23.8586 25.4316L15.7551 33.5332C15.3993 33.8883 14.8216 33.8888 14.466 33.5332C14.1105 33.1776 14.1109 32.6 14.466 32.2441L22.5676 24.1406C22.6049 24.1032 22.6262 24.0529 22.6262 24C22.6262 23.9471 22.605 23.8969 22.5676 23.8594L14.466 15.7559C14.1108 15.4001 14.1106 14.8224 14.466 14.4668C14.8217 14.1112 15.3993 14.1115 15.7551 14.4668L23.8586 22.5684C23.8961 22.6057 23.9464 22.6269 23.9993 22.627C24.0521 22.627 24.1024 22.6056 24.1399 22.5684L32.2434 14.4668ZM14.0383 33.1797C14.0094 33.0725 13.9976 32.9618 14.0012 32.8516C13.9977 32.9618 14.0092 33.0725 14.0383 33.1797ZM14.3254 32.1016L14.1897 32.2656C14.208 32.2385 14.2282 32.2123 14.2493 32.1865L14.3254 32.1016ZM14.0022 15.042C14.0005 15.0696 13.9999 15.0973 14.0002 15.125L14.0051 15.2188C13.9995 15.16 13.9985 15.1009 14.0022 15.042ZM14.0549 33.2315C14.0493 33.2142 14.043 33.1972 14.0383 33.1797C14.0431 33.1972 14.0493 33.2142 14.0549 33.2315ZM14.0198 15.3242L14.0178 15.3115C14.0218 15.3335 14.0271 15.3552 14.0325 15.377C14.0282 15.3594 14.0232 15.342 14.0198 15.3242ZM14.0325 15.377C14.035 15.3873 14.0365 15.3979 14.0393 15.4082C14.0365 15.3979 14.035 15.3873 14.0325 15.377ZM14.0041 15.0176C14.0034 15.0257 14.0027 15.0339 14.0022 15.042C14.0027 15.0338 14.0034 15.0257 14.0041 15.0176Z" fill="black"/>
</svg>
