<svg width="24" height="24" viewBox="0 0 24 24" fill="none" xmlns="http://www.w3.org/2000/svg">
    <path d="M12 1.62012C12.9635 1.62012 13.5953 2.34423 13.9561 3.06445C14.3261 3.80589 14.5049 4.70722 14.5049 5.4375V10.3564L21.3574 13.7822C21.6646 13.9357 21.9229 14.1718 22.1035 14.4639C22.2842 14.756 22.3799 15.093 22.3799 15.4365V17.25L22.3672 17.3652C22.3588 17.403 22.3465 17.4403 22.3301 17.4756C22.2973 17.5461 22.2497 17.6089 22.1904 17.6592C22.1311 17.7094 22.0613 17.7459 21.9863 17.7666C21.9113 17.7873 21.8326 17.7911 21.7559 17.7783L14.5283 16.5742L14.4092 16.5537L14.3896 16.6729L13.8975 19.6299L13.8877 19.6904L13.9307 19.7344L15.6611 21.4639C15.7363 21.5389 15.7878 21.6351 15.8086 21.7393C15.8292 21.8433 15.8179 21.9509 15.7773 22.0488C15.7367 22.1469 15.6684 22.2311 15.5801 22.29C15.4917 22.3489 15.3875 22.3801 15.2812 22.3799H8.71875C8.61255 22.3801 8.50828 22.3489 8.41992 22.29C8.3316 22.2311 8.26331 22.1469 8.22266 22.0488C8.18207 21.9509 8.17075 21.8433 8.19141 21.7393C8.21218 21.6351 8.26368 21.5389 8.33887 21.4639L10.1143 19.6904L10.1035 19.6299L9.61035 16.6729L9.59082 16.5537L9.47168 16.5742L2.24414 17.7783C2.16735 17.7911 2.08871 17.7873 2.01367 17.7666C1.9387 17.7459 1.86893 17.7094 1.80957 17.6592C1.75026 17.6089 1.70267 17.5461 1.66992 17.4756C1.63718 17.405 1.62016 17.3278 1.62012 17.25V15.4365C1.62013 15.093 1.71582 14.756 1.89648 14.4639C2.0771 14.1718 2.33539 13.9357 2.64258 13.7822L9.49512 10.3564V5.4375C9.49512 4.70862 9.67519 3.80466 10.0439 3.06445C10.4046 2.34308 11.0364 1.62012 12 1.62012ZM12 2.69238C11.696 2.69238 11.3874 2.88987 11.1162 3.33789L11.0029 3.54492C10.7166 4.11614 10.5674 4.85548 10.5674 5.4375V10.6875L10.5625 10.7617C10.5523 10.835 10.5264 10.9053 10.4873 10.9688C10.435 11.0534 10.3604 11.1224 10.2715 11.167L3.12109 14.7422C2.99237 14.8067 2.88426 14.9058 2.80859 15.0283C2.73292 15.1509 2.69239 15.2925 2.69238 15.4365V16.6172L2.83203 16.5938L9.94336 15.4092C10.0834 15.3859 10.2272 15.4185 10.3428 15.501C10.4584 15.5834 10.5359 15.7086 10.5596 15.8486L11.2158 19.7861C11.23 19.8704 11.2242 19.9567 11.1982 20.0381C11.1721 20.1196 11.127 20.1944 11.0664 20.2549L10.0146 21.3076H13.9883L13.7832 21.1025L12.9336 20.2549C12.8732 20.1946 12.8279 20.1204 12.8018 20.0391C12.7757 19.9578 12.7702 19.8713 12.7842 19.7871L13.4404 15.8496C13.452 15.7801 13.4764 15.7131 13.5137 15.6533C13.551 15.5936 13.5999 15.5419 13.6572 15.501C13.7146 15.46 13.78 15.4309 13.8486 15.415C13.9172 15.3992 13.9882 15.3975 14.0576 15.4092L21.168 16.5938L21.3076 16.6172V15.4365C21.3076 15.2925 21.2671 15.1509 21.1914 15.0283C21.1157 14.9058 21.0076 14.8067 20.8789 14.7422L13.7285 11.167C13.6396 11.1224 13.565 11.0534 13.5127 10.9688C13.4605 10.8841 13.4326 10.7869 13.4326 10.6875V5.4375C13.4326 4.92718 13.3196 4.29923 13.0986 3.7666L12.9971 3.54492C12.7005 2.95178 12.3474 2.69238 12 2.69238ZM12.8496 20.3398L12.7969 20.2812C12.7902 20.2728 12.7845 20.2636 12.7783 20.2549C12.7998 20.285 12.8234 20.3136 12.8496 20.3398ZM12.7158 20.1484C12.7308 20.1812 12.7492 20.2123 12.7695 20.2422C12.764 20.234 12.7581 20.2262 12.7529 20.2178L12.7158 20.1484ZM12.6572 19.8447C12.6557 19.8783 12.6576 19.9119 12.6611 19.9453C12.6603 19.9378 12.6588 19.9304 12.6582 19.9229L12.6572 19.8447ZM1.78906 17.7939C1.81533 17.8117 1.84355 17.826 1.87207 17.8398C1.86472 17.8363 1.85682 17.8339 1.84961 17.8301L1.78906 17.7939ZM22.3379 17.6787C22.316 17.7039 22.2932 17.7283 22.2676 17.75C22.2313 17.7808 22.1922 17.808 22.1504 17.8301C22.1921 17.8077 22.2313 17.7807 22.2676 17.75C22.2932 17.7283 22.316 17.7038 22.3379 17.6787ZM22.4658 17.459V17.46V17.459ZM2.82422 15.3174C2.82646 15.3052 2.82911 15.2932 2.83203 15.2812C2.82912 15.2932 2.82646 15.3052 2.82422 15.3174ZM21.167 15.2812C21.1699 15.2933 21.1726 15.3052 21.1748 15.3174C21.1726 15.3052 21.1699 15.2933 21.167 15.2812ZM2.9834 14.9951C2.99037 14.9874 2.99756 14.98 3.00488 14.9727C2.99756 14.98 2.99037 14.9874 2.9834 14.9951ZM20.9941 14.9727C21.0015 14.98 21.0086 14.9874 21.0156 14.9951C21.0086 14.9874 21.0015 14.98 20.9941 14.9727ZM10.6934 5.22363C10.6976 5.15247 10.7046 5.07974 10.7129 5.00586C10.7046 5.07974 10.6976 5.15247 10.6934 5.22363ZM10.7236 4.92676C10.7288 4.88665 10.7339 4.8462 10.7402 4.80566C10.7339 4.8462 10.7288 4.88665 10.7236 4.92676ZM10.7666 4.6582C10.7703 4.63873 10.7734 4.61911 10.7773 4.59961C10.7734 4.61911 10.7703 4.63873 10.7666 4.6582ZM10.9297 4.03223C10.9074 4.09705 10.8874 4.16308 10.8682 4.22949C10.8874 4.16309 10.9074 4.09704 10.9297 4.03223ZM22.4053 17.5889C22.3875 17.6183 22.3668 17.6456 22.3447 17.6719C22.3669 17.6457 22.3875 17.6183 22.4053 17.5889ZM10.6875 5.4375C10.6875 5.36834 10.689 5.29683 10.6934 5.22363C10.689 5.29683 10.6875 5.36834 10.6875 5.4375ZM10.9375 4.01074L11.0127 3.81348C10.9832 3.88477 10.9553 3.95777 10.9297 4.03223C10.9322 4.02502 10.935 4.01793 10.9375 4.01074Z" fill="#E5E5E5"/>
</svg>
