<svg width="16" height="16" viewBox="0 0 16 16" fill="none" xmlns="http://www.w3.org/2000/svg">
    <path d="M11.1657 2.333C11.2529 2.4223 11.3018 2.54217 11.3018 2.667C11.3018 2.79183 11.2529 2.91171 11.1657 3.001L6.29269 8L11.1657 12.998C11.2529 13.0873 11.3018 13.2072 11.3018 13.332C11.3018 13.4568 11.2529 13.5767 11.1657 13.666C11.1233 13.7095 11.0726 13.7442 11.0166 13.7678C10.9606 13.7914 10.9005 13.8036 10.8397 13.8036C10.7789 13.8036 10.7188 13.7914 10.6628 13.7678C10.6068 13.7442 10.5561 13.7095 10.5137 13.666L5.33169 8.349C5.24068 8.25563 5.18974 8.13039 5.18974 8C5.18974 7.86961 5.24068 7.74437 5.33169 7.651L10.5137 2.334C10.5561 2.29046 10.6068 2.25585 10.6628 2.23222C10.7188 2.20859 10.7789 2.19641 10.8397 2.19641C10.9005 2.19641 10.9606 2.20859 11.0166 2.23222C11.0726 2.25585 11.1233 2.29046 11.1657 2.334V2.333Z" fill="black"/>
</svg>
