<svg width="20" height="20" viewBox="0 0 20 20" fill="none" xmlns="http://www.w3.org/2000/svg">
    <path d="M16.25 17.5H3.75C3.41863 17.4995 3.10098 17.3676 2.86666 17.1333C2.63235 16.899 2.5005 16.5814 2.5 16.25V3.75C2.5005 3.41863 2.63235 3.10098 2.86666 2.86666C3.10098 2.63235 3.41863 2.5005 3.75 2.5H10V3.75H3.75V16.25H16.25V10H17.5V16.25C17.4995 16.5814 17.3676 16.899 17.1333 17.1333C16.899 17.3676 16.5814 17.4995 16.25 17.5Z" fill="black"/>
    <path d="M12.5 1.25V2.5H16.6163L11.25 7.86625L12.1337 8.75L17.5 3.38375V7.5H18.75V1.25H12.5Z" fill="black"/>
</svg>
