<svg width="24" height="24" viewBox="0 0 24 24" fill="none" xmlns="http://www.w3.org/2000/svg">
    <path d="M12.2344 3.28711C13.4007 3.34508 14.5073 3.83267 15.3369 4.66211C16.2221 5.54728 16.7197 6.74915 16.7197 8.00098L16.7139 8.23535C16.6557 9.40145 16.1665 10.5083 15.3369 11.3379C15.2395 11.4353 15.1362 11.5276 15.0293 11.6172C14.9816 11.6573 14.9579 11.7196 14.9668 11.7812C14.9759 11.8428 15.0162 11.8961 15.0732 11.9209C15.9546 12.3036 16.7656 12.8496 17.458 13.542C18.9057 14.9898 19.7197 16.9527 19.7197 19V20.001L19.7051 20.1455C19.6376 20.4732 19.347 20.7197 18.999 20.7197C18.6019 20.7195 18.2808 20.398 18.2803 20.001V19C18.2803 17.3345 17.618 15.7363 16.4404 14.5586C15.2628 13.3813 13.6651 12.7208 12 12.7207C10.3346 12.7207 8.73636 13.381 7.55859 14.5586C6.38088 15.7363 5.71875 17.3344 5.71875 19V20.001L5.7041 20.1455C5.63693 20.4733 5.34747 20.7195 5 20.7197C4.6028 20.7197 4.28079 20.3983 4.28027 20.001V19C4.28028 16.9527 5.09355 14.9897 6.54102 13.542C7.2333 12.8498 8.04465 12.3035 8.92578 11.9209C8.98274 11.8961 9.02316 11.8427 9.03223 11.7812C9.04114 11.7197 9.01722 11.6573 8.96973 11.6172C8.86297 11.5277 8.75932 11.4351 8.66211 11.3379C7.77738 10.453 7.28053 9.25242 7.28027 8.00098L7.28613 7.7666C7.34397 6.59988 7.83243 5.49179 8.66211 4.66211C9.54716 3.77719 10.7482 3.28125 12 3.28125L12.2344 3.28711ZM12 4.71973C11.1301 4.71973 10.2948 5.06553 9.67969 5.68066C9.06471 6.29577 8.71875 7.1312 8.71875 8.00098C8.71901 8.87047 9.06501 9.70452 9.67969 10.3193C10.2177 10.8573 10.9241 11.1899 11.6748 11.2646L11.6836 11.2656L11.9912 11.2803H12.0088L12.3154 11.2656L12.3242 11.2646C13.075 11.19 13.7814 10.8573 14.3193 10.3193C14.934 9.70451 15.28 8.87045 15.2803 8.00098C15.2803 7.13131 14.9342 6.29575 14.3193 5.68066C13.7044 5.06587 12.8697 4.71986 12 4.71973Z" fill="black"/>
</svg>
